<svg width="248" height="69" viewBox="0 0 248 69" fill="none" xmlns="http://www.w3.org/2000/svg">
<path d="M106.906 68.9999C103.602 68.9999 100.922 66.3219 100.922 63.0208V5.99112C100.922 2.69 103.602 0.0119629 106.906 0.0119629C110.209 0.0119629 112.89 2.69 112.89 5.99112V63.0208C112.89 66.3219 110.209 68.9999 106.906 68.9999Z" fill="#040000"/>
<path d="M242.016 69C238.712 69 236.032 66.3219 236.032 63.0208V63.0088C236.032 59.7077 238.712 57.0297 242.016 57.0297C245.32 57.0297 248 59.7077 248 63.0088V63.0208C248 66.3219 245.32 69 242.016 69Z" fill="#040000"/>
<path d="M218.596 68.994C215.293 68.994 212.613 66.3159 212.613 63.0148V5.97916C212.613 2.67804 215.293 0 218.596 0C221.9 0 224.58 2.67804 224.58 5.97916V63.0088C224.58 66.3159 221.9 68.994 218.596 68.994Z" fill="#040000"/>
<path d="M130.332 69.0001C127.028 69.0001 124.348 66.322 124.348 63.0209V31.8789C124.348 28.5778 127.028 25.8998 130.332 25.8998C133.635 25.8998 136.315 28.5778 136.315 31.8789V63.0209C136.315 66.322 133.635 69.0001 130.332 69.0001Z" fill="#040000"/>
<path d="M111.229 59.6838L72.8375 2.69003C72.7175 2.5103 72.5856 2.33056 72.4477 2.16281C72.4357 2.15083 72.4237 2.13884 72.4118 2.12686C72.2978 1.99506 72.1779 1.86325 72.058 1.74343C71.998 1.68352 71.9381 1.63559 71.8781 1.57568C71.7942 1.50378 71.7162 1.4259 71.6323 1.354C71.5603 1.29409 71.4884 1.24616 71.4104 1.18625C71.3265 1.12634 71.2486 1.06044 71.1586 1.00652C71.0927 0.95859 71.0207 0.922643 70.9488 0.880705C70.8528 0.820793 70.7569 0.760882 70.655 0.706962C70.595 0.677006 70.5351 0.653042 70.4751 0.623086C70.3612 0.563175 70.2413 0.509254 70.1213 0.461325C70.0734 0.443352 70.0254 0.425378 69.9774 0.407405C69.8455 0.353484 69.7076 0.305555 69.5697 0.263617C69.5278 0.251635 69.4858 0.239653 69.4438 0.233662C69.2999 0.191724 69.156 0.155777 69.0121 0.125821C68.9522 0.113839 68.8922 0.107848 68.8322 0.0958656C68.7003 0.071901 68.5744 0.0539275 68.4425 0.0419452C68.0468 7.21589e-06 67.6511 0.00599836 67.2553 0.0419452C67.2074 0.0479363 67.1594 0.0539273 67.1174 0.0599185C66.9675 0.0778919 66.8236 0.0958654 66.6737 0.125821C66.6018 0.137803 66.5298 0.161768 66.4639 0.179741C66.344 0.209697 66.224 0.233662 66.1101 0.269609C66.0262 0.293573 65.9422 0.32952 65.8583 0.359476C65.7564 0.395422 65.6604 0.425378 65.5585 0.467316C65.4626 0.509254 65.3666 0.557183 65.2707 0.605112C65.1928 0.64705 65.1088 0.677006 65.0309 0.718944C64.911 0.784847 64.791 0.85674 64.6771 0.928634C64.6292 0.95859 64.5752 0.988546 64.5212 1.0185C64.3593 1.12634 64.2094 1.24017 64.0655 1.36C64.0655 1.36 64.0595 1.36 64.0595 1.36599C63.9156 1.48581 63.7777 1.61162 63.6458 1.73744C63.6398 1.74343 63.6338 1.74343 63.6338 1.74942C63.5019 1.88123 63.382 2.01303 63.2681 2.15083C63.2621 2.15682 63.2561 2.1688 63.2441 2.17479C63.1362 2.3066 63.0343 2.44439 62.9383 2.58219C62.9263 2.60016 62.9083 2.62413 62.8964 2.6421C62.8124 2.76791 62.7345 2.89972 62.6565 3.03752C62.6385 3.07346 62.6145 3.10941 62.5906 3.14536C62.5246 3.26518 62.4706 3.39099 62.4107 3.51681C62.3867 3.57073 62.3567 3.62465 62.3387 3.67857C62.2908 3.79839 62.2488 3.91821 62.2068 4.03804C62.1828 4.10394 62.1589 4.16385 62.1409 4.22975C62.0989 4.36156 62.0689 4.49935 62.0389 4.63715C62.027 4.69107 62.009 4.739 62.003 4.79292C61.919 5.20032 61.8831 5.6197 61.8831 6.03309V63.0088C61.8831 66.31 64.5632 68.988 67.8669 68.988C71.1706 68.988 73.8508 66.31 73.8508 63.0088V25.5822L101.318 66.3579C102.475 68.0714 104.364 69 106.288 69C107.439 69 108.597 68.6705 109.622 67.9815C112.35 66.1362 113.076 62.4217 111.229 59.6838Z" fill="#040000"/>
<path d="M25.1945 68.9997C11.3022 68.9997 0 57.7064 0 43.8249V6.00882C0 2.7077 2.68014 0.0296631 5.98385 0.0296631C9.28756 0.0296631 11.9677 2.7077 11.9677 6.00882V43.8249C11.9677 51.1101 17.8976 57.0414 25.1945 57.0414C32.4915 57.0414 38.4213 51.1101 38.4213 43.8249V6.00882C38.4213 2.7077 41.1015 0.0296631 44.4052 0.0296631C47.7089 0.0296631 50.389 2.7077 50.389 6.00882V43.8249C50.389 57.7064 39.0869 68.9997 25.1945 68.9997Z" fill="#040000"/>
<path d="M203.775 60.7142L179.929 3.68454C179.126 1.76738 177.447 0.491264 175.552 0.119813C175.486 0.107831 175.414 0.10184 175.348 0.0898573C175.228 0.0718839 175.102 0.0479193 174.982 0.035937C174.887 0.0239547 174.791 0.0239549 174.689 0.0179637C174.593 0.0119726 174.497 0.00598145 174.401 0.00598145C174.287 0.00598145 174.173 0.0119724 174.059 0.0239547C173.981 0.0299458 173.897 0.0299458 173.819 0.035937C173.675 0.0479193 173.537 0.071884 173.394 0.0958486C173.346 0.10184 173.298 0.107831 173.244 0.119813C171.349 0.491264 169.664 1.77337 168.867 3.69652L145.183 60.7262C143.918 63.7757 145.363 67.2745 148.415 68.5386C149.164 68.8502 149.944 68.994 150.705 68.994C153.05 68.994 155.28 67.604 156.234 65.3034L160.922 54.0161H187.993L192.718 65.3214C193.678 67.616 195.902 68.9999 198.24 68.9999C199.008 68.9999 199.793 68.8502 200.543 68.5386C203.607 67.2685 205.046 63.7637 203.775 60.7142ZM165.899 42.0638L174.425 21.5381L183.011 42.0638H165.899Z" fill="#040000"/>
<path d="M136.321 5.7755C136.279 5.42802 136.201 5.09251 136.106 4.763C136.088 4.70908 136.088 4.65516 136.07 4.60124L136.004 4.39754C135.98 4.32565 135.944 4.25974 135.914 4.18785C135.854 4.03208 135.788 3.87631 135.716 3.72653C135.65 3.58275 135.566 3.44495 135.488 3.31314C135.338 3.0735 135.176 2.85183 135.014 2.66011L134.876 2.49835C134.715 2.31862 134.571 2.17483 134.445 2.055C134.361 1.98311 134.283 1.90523 134.193 1.83932C134.139 1.79739 134.079 1.74946 134.025 1.70153C134.001 1.68355 133.983 1.66558 133.959 1.64761C132.952 0.892724 131.711 0.425415 130.356 0.425415C127.028 0.425415 124.324 3.12143 124.324 6.4525C124.324 9.77759 127.022 12.4796 130.356 12.4796C130.577 12.4796 130.781 12.4377 130.997 12.4137C130.949 12.5095 130.871 12.6174 130.817 12.7132C130.817 12.7132 129.792 14.7023 127.424 16.1162C127.268 16.2241 127.124 16.3499 126.962 16.4457C125.655 17.2066 125.109 17.7158 125.319 17.9795C125.529 18.2431 126.29 18.1232 127.591 17.62C130.374 16.5356 132.532 15.0498 134.073 13.1686C134.966 12.0722 135.602 10.9578 135.986 9.82551C135.992 9.81353 135.998 9.80155 135.998 9.78957C136.423 8.03416 136.435 6.70413 136.321 5.7755Z" fill="#FDD200"/>
</svg>
