<svg width="540" height="63" viewBox="0 0 540 63" fill="none" xmlns="http://www.w3.org/2000/svg">
<path d="M192.601 2.32422C193.837 2.32422 194.5 2.90297 194.5 4.1384V11.9683C194.5 13.2037 193.843 13.7825 192.601 13.7825H156.815C148.323 13.7825 145.846 16.3368 145.846 24.9903V26.6376H192.183C193.419 26.6376 193.999 27.2163 193.999 28.4517V34.9627C193.999 36.1982 193.419 36.7769 192.183 36.7769H145.846V58.202C145.846 59.4375 145.266 60.0162 144.03 60.0162H135.127C133.891 60.0162 133.228 59.4375 133.228 58.202V24.0777C133.228 8.25647 139.659 2.32422 156.314 2.32422H192.601Z" fill="#265BFF"/>
<path d="M230.72 26.6203C241.84 26.6203 245.42 30.1986 245.42 39.1526V55.074C245.42 59.0863 244.435 60.0101 240.849 60.0101H212.446C205.157 60.0101 202.935 57.3556 202.935 51.2453V48.78C202.935 43.5935 205.157 40.6941 212.446 40.6941H236.589V39.5199C236.589 35.5688 235.23 34.0273 229.857 34.0273H204.038C203.297 34.0273 202.924 33.7212 202.924 32.9143V27.7277C202.924 26.9876 203.297 26.6147 204.038 26.6147H230.72V26.6203ZM236.589 51.1229V46.1923H214.979C212.446 46.1923 211.521 47.2441 211.521 49.2141V50.0099C211.521 52.2303 212.446 53.2208 214.979 53.2208H234.796C236.093 53.2208 236.589 52.6643 236.589 51.1229Z" fill="#265BFF"/>
<path d="M286.346 26.6206C287.086 26.6206 287.459 26.9879 287.459 27.7336V32.9201C287.459 33.7215 287.092 34.0331 286.346 34.0331H269.914C264.602 34.0331 263.182 35.6358 263.182 40.8224V58.6525C263.182 59.5763 262.748 60.0104 261.824 60.0104H255.771C254.847 60.0104 254.351 59.5763 254.351 58.6525V39.1529C254.351 30.1989 257.932 26.6206 269.051 26.6206H286.346Z" fill="#265BFF"/>
<path d="M342.656 26.6203C353.776 26.6203 357.295 30.1986 357.295 39.1526V58.6522C357.295 59.576 356.86 60.0101 355.936 60.0101H349.883C348.959 60.0101 348.525 59.576 348.525 58.6522V41.245C348.525 36.0585 347.539 34.4558 342.166 34.4558H331.297V58.6522C331.297 59.576 330.802 60.0101 329.877 60.0101H323.825C322.9 60.0101 322.466 59.576 322.466 58.6522V34.4558H311.965C306.653 34.4558 305.233 36.0585 305.233 41.245V58.6467C305.233 59.5705 304.798 60.0045 303.874 60.0045H297.822C296.897 60.0045 296.402 59.5705 296.402 58.6467V39.147C296.402 30.193 299.982 26.6147 311.102 26.6147H342.656V26.6203Z" fill="#265BFF"/>
<path d="M443.595 58.0959L416.305 8.56771C413.583 3.62603 411.027 2.30713 406.823 2.30713H401.956C398.493 2.30713 396.021 3.62603 393.298 8.56771L366.254 58.0959C365.675 59.1644 365.925 59.9936 367.328 59.9936H378.047C379.038 59.9936 379.534 59.7487 379.946 58.9195L385.636 48.2904L403.777 14.5834C404.022 14.1716 404.273 14.0047 404.685 14.0047H405.18C405.592 14.0047 405.843 14.1716 406.088 14.5834L430.248 58.9195C430.66 59.7431 431.072 59.9936 432.147 59.9936H442.62C443.923 59.988 444.168 59.1644 443.595 58.0959Z" fill="#265BFF"/>
<path d="M462.448 24.2607C463.685 24.2607 464.264 24.9174 464.264 26.1584L464.252 58.1903C464.252 59.4258 463.679 60.0045 462.437 60.0045H454.358C453.122 60.0045 452.543 59.4258 452.543 58.1903L452.554 26.1584C452.554 24.923 453.133 24.2607 454.369 24.2607H462.448Z" fill="#265BFF"/>
<path d="M462.487 2.32373H454.408C453.172 2.32373 452.509 2.90249 452.509 4.13791V11.9678C452.509 13.1476 453.127 13.782 454.252 13.8376C454.308 13.8432 454.347 13.8599 454.408 13.8599H457.576H458.723C459.358 14.4609 459.759 15.3012 459.759 16.2417C459.759 19.1967 457.331 18.8795 457.331 19.397C457.331 19.8812 460.978 20.076 462.877 17.4104C464.108 15.6852 464.303 14.2049 464.303 12.0346C464.303 12.0123 464.303 11.9956 464.303 11.9734V11.9678V9.69731V9.47471V4.14347C464.303 2.90249 463.723 2.32373 462.487 2.32373Z" fill="#265BFF"/>
<path d="M514.41 2.32959C532.362 2.32959 539.728 9.52509 539.728 25.6468V36.6821C539.728 52.8038 532.367 59.9993 514.41 59.9993H475.689C474.036 59.9993 473.206 59.1701 473.206 57.5173V4.81156C473.206 3.15877 474.036 2.32959 475.689 2.32959H514.41ZM485.868 47.4336C485.868 48.1793 486.196 48.5077 486.942 48.5077H514.081C523.842 48.5077 527.072 45.3635 527.072 35.6081V26.7208C527.072 16.9654 523.842 13.8212 514.081 13.8212H486.942C486.196 13.8212 485.868 14.1496 485.868 14.9788V47.4336Z" fill="#265BFF"/>
<path d="M23.8984 62.2363V46.699C23.8984 46.699 24.5944 34.0721 40.1405 34.0721C59.7514 34.0721 67.3853 51.0062 75.1027 54.4955C78.1262 56.0258 81.4559 56.8661 84.8413 56.9608C92.3304 56.9608 109.831 50.0268 109.831 15.7522C109.831 15.7522 100.254 26.9934 88.7334 26.9934C77.213 26.9934 73.8777 20.6104 73.8777 20.6104C73.8777 20.6104 84.0117 19.9203 84.0117 0.0756836C84.0117 0.0756836 77.4859 7.9835 71.7952 8.54C66.0991 9.09649 49.0272 6.87607 35.9812 18.9409C35.1404 16.6259 34.9956 14.1161 35.5635 11.7232C35.5635 11.7232 19.8782 22.9644 19.8782 47.2443C12.8067 46.5988 5.79642 48.975 0.579102 53.7776C0.579102 53.7776 14.1876 54.4677 23.8984 62.2363Z" fill="#265BFF"/>
</svg>
