<svg width="20" height="20" viewBox="0 0 20 20" fill="none" xmlns="http://www.w3.org/2000/svg">
<path fill-rule="evenodd" clip-rule="evenodd" d="M10 0C15.5228 0 20 4.47715 20 10C20 15.5228 15.5228 20 10 20C4.47715 20 0 15.5228 0 10C0 4.47715 4.47715 0 10 0ZM10 18C10.2151 18 10.9482 17.7737 11.7467 16.1766C12.0532 15.5635 12.3212 14.8293 12.5298 14H7.4702C7.6788 14.8293 7.94677 15.5635 8.25332 16.1766C9.05184 17.7737 9.78494 18 10 18ZM7.11146 12C7.03919 11.3641 7 10.6949 7 10C7 9.30508 7.03919 8.63585 7.11146 8H12.8885C12.9608 8.63585 13 9.30508 13 10C13 10.6949 12.9608 11.3641 12.8885 12H7.11146ZM14.584 14C14.3182 15.2166 13.9348 16.307 13.4627 17.2138C14.9162 16.5149 16.1259 15.3895 16.9297 14H14.584ZM17.748 12H14.9C14.9656 11.3538 15 10.6849 15 10C15 9.31507 14.9656 8.64622 14.9 8H17.748C17.9125 8.63924 18 9.3094 18 10C18 10.6906 17.9125 11.3608 17.748 12ZM5.10002 12H2.25203C2.08751 11.3608 2 10.6906 2 10C2 9.3094 2.08751 8.63924 2.25203 8H5.10002C5.03443 8.64622 5 9.31507 5 10C5 10.6849 5.03443 11.3538 5.10002 12ZM3.07026 14H5.41605C5.68183 15.2166 6.06515 16.307 6.53731 17.2138C5.0838 16.5149 3.87406 15.3895 3.07026 14ZM7.4702 6H12.5298C12.3212 5.17074 12.0532 4.43647 11.7467 3.82336C10.9482 2.22632 10.2151 2 10 2C9.78494 2 9.05184 2.22632 8.25332 3.82336C7.94677 4.43647 7.6788 5.17074 7.4702 6ZM14.584 6H16.9297C16.1259 4.61047 14.9162 3.48514 13.4627 2.78617C13.9348 3.69296 14.3182 4.78337 14.584 6ZM6.53731 2.78617C6.06515 3.69296 5.68183 4.78337 5.41604 6H3.07026C3.87406 4.61047 5.08379 3.48514 6.53731 2.78617Z" fill="black"/>
</svg>
