<svg width="153" height="37" viewBox="0 0 153 37" fill="none" xmlns="http://www.w3.org/2000/svg">
<g clip-path="url(#clip0_1_81)">
<path d="M144.947 0.939453H136.893L144.947 12.9412H153L144.947 0.939453Z" fill="#5316D8"/>
<path d="M24.1551 20.9424C24.1551 25.3591 20.5471 28.9436 16.1016 28.9436C11.6561 28.9436 8.04811 25.3591 8.04811 20.9424V0.939453H0V20.9424C0 29.7811 7.21055 36.9448 16.107 36.9448C25.0034 36.9448 32.2139 29.7811 32.2139 20.9424V0.939453H24.1604V20.9424H24.1551Z" fill="#17181C"/>
<path d="M88.5775 0.939453H80.5241V36.9395H88.5775V0.939453Z" fill="#17181C"/>
<path d="M144.947 12.9412H136.893V36.9395H144.947V12.9412Z" fill="#17181C"/>
<path d="M64.4225 24.9377L48.3155 0.939453H40.262V36.9395H48.3155V12.9412L64.4225 36.9395H72.4706V0.939453H64.4225V24.9377Z" fill="#17181C"/>
<path d="M116.759 0.939453L92.6043 36.9395H100.658L106.027 28.9383H120.791V36.9395H128.845V0.939453H116.759ZM120.786 20.9424H111.39L120.786 6.94034V20.9424Z" fill="#17181C"/>
</g>
<defs>
<clipPath id="clip0_1_81">
<rect width="153" height="36" fill="white" transform="translate(0 0.939453)"/>
</clipPath>
</defs>
</svg>
