<svg width="144" height="40" viewBox="0 0 144 40" fill="none" xmlns="http://www.w3.org/2000/svg">
<path d="M61.8937 40C59.981 40 58.4293 38.4475 58.4293 36.5338V3.47313C58.4293 1.55944 59.981 0.00695229 61.8937 0.00695229C63.8064 0.00695229 65.3581 1.55944 65.3581 3.47313V36.5338C65.3581 38.4475 63.8064 40 61.8937 40Z" fill="#040000"/>
<path d="M140.117 40C138.204 40 136.652 38.4475 136.652 36.5338V36.5269C136.652 34.6132 138.204 33.0607 140.117 33.0607C142.029 33.0607 143.581 34.6132 143.581 36.5269V36.5338C143.581 38.4475 142.029 40 140.117 40Z" fill="#040000"/>
<path d="M126.557 39.9965C124.645 39.9965 123.093 38.444 123.093 36.5303V3.46618C123.093 1.55249 124.645 0 126.557 0C128.47 0 130.022 1.55249 130.022 3.46618V36.5269C130.022 38.444 128.47 39.9965 126.557 39.9965Z" fill="#040000"/>
<path d="M75.4562 40C73.5435 40 71.9918 38.4475 71.9918 36.5338V18.4805C71.9918 16.5668 73.5435 15.0143 75.4562 15.0143C77.3689 15.0143 78.9206 16.5668 78.9206 18.4805V36.5338C78.9206 38.4475 77.3689 40 75.4562 40Z" fill="#040000"/>
<path d="M64.3965 34.5993L42.1696 1.55943C42.1002 1.45523 42.0238 1.35104 41.944 1.25379C41.937 1.24685 41.9301 1.2399 41.9232 1.23295C41.8572 1.15654 41.7878 1.08014 41.7183 1.01067C41.6836 0.975942 41.6489 0.948157 41.6142 0.913426C41.5656 0.871749 41.5205 0.826598 41.4719 0.78492C41.4302 0.750189 41.3886 0.722404 41.3434 0.687673C41.2948 0.652941 41.2497 0.614737 41.1977 0.583479C41.1595 0.555694 41.1178 0.534855 41.0762 0.510543C41.0206 0.475812 40.9651 0.441081 40.9061 0.409822C40.8713 0.392457 40.8366 0.378565 40.8019 0.361199C40.736 0.326468 40.6665 0.295209 40.5971 0.267424C40.5693 0.257005 40.5416 0.246585 40.5138 0.236166C40.4374 0.204908 40.3576 0.177123 40.2778 0.152811C40.2535 0.145865 40.2292 0.138919 40.2049 0.135446C40.1215 0.111134 40.0382 0.0902948 39.9549 0.0729292C39.9202 0.0659829 39.8855 0.0625099 39.8508 0.0555637C39.7744 0.0416712 39.7015 0.0312517 39.6251 0.0243055C39.396 -6.40657e-06 39.1669 0.00346672 38.9378 0.0243055C38.91 0.0277786 38.8823 0.0312516 38.858 0.0347248C38.7712 0.0451441 38.6879 0.0555636 38.6011 0.0729292C38.5594 0.0798755 38.5178 0.093768 38.4796 0.104187C38.4102 0.121553 38.3408 0.135446 38.2748 0.156284C38.2262 0.170177 38.1776 0.191015 38.129 0.208381C38.07 0.22922 38.0144 0.246586 37.9554 0.270897C37.8999 0.295209 37.8444 0.322994 37.7888 0.350779C37.7437 0.375091 37.6951 0.392457 37.65 0.416769C37.5805 0.454973 37.5111 0.496651 37.4452 0.538328C37.4174 0.555694 37.3861 0.573059 37.3549 0.590425C37.2612 0.652941 37.1744 0.718931 37.0911 0.788393C37.0911 0.788393 37.0876 0.788393 37.0876 0.791866C37.0043 0.861329 36.9245 0.934265 36.8481 1.0072C36.8446 1.01067 36.8411 1.01067 36.8411 1.01415C36.7648 1.09056 36.6953 1.16696 36.6294 1.24685C36.6259 1.25032 36.6224 1.25727 36.6155 1.26074C36.553 1.33715 36.494 1.41703 36.4385 1.49691C36.4315 1.50733 36.4211 1.52122 36.4142 1.53164C36.3656 1.60458 36.3204 1.68099 36.2753 1.76087C36.2649 1.78171 36.251 1.80255 36.2371 1.82339C36.1989 1.89285 36.1677 1.96578 36.133 2.03872C36.1191 2.06998 36.1017 2.10124 36.0913 2.13249C36.0636 2.20196 36.0393 2.27142 36.015 2.34088C36.0011 2.37909 35.9872 2.41382 35.9768 2.45202C35.9525 2.52843 35.9351 2.60831 35.9178 2.68819C35.9108 2.71945 35.9004 2.74724 35.8969 2.7785C35.8483 3.01467 35.8275 3.25779 35.8275 3.49743V36.5269C35.8275 38.4406 37.3792 39.993 39.2919 39.993C41.2046 39.993 42.7563 38.4406 42.7563 36.5269V14.8302L58.6584 38.4683C59.3284 39.4617 60.4218 40 61.5361 40C62.2026 40 62.8726 39.809 63.4662 39.4096C65.0456 38.3398 65.4657 36.1865 64.3965 34.5993Z" fill="#040000"/>
<path d="M14.5865 40C6.54345 40 0 33.4532 0 25.4059V3.48356C0 1.56987 1.55168 0.0173798 3.46438 0.0173798C5.37708 0.0173798 6.92876 1.56987 6.92876 3.48356V25.4059C6.92876 29.6293 10.3619 33.0676 14.5865 33.0676C18.8111 33.0676 22.2442 29.6293 22.2442 25.4059V3.48356C22.2442 1.56987 23.7959 0.0173798 25.7086 0.0173798C27.6213 0.0173798 29.173 1.56987 29.173 3.48356V25.4059C29.173 33.4532 22.6296 40 14.5865 40Z" fill="#040000"/>
<path d="M117.976 35.1967L104.171 2.13597C103.706 1.02457 102.734 0.284796 101.637 0.0694627C101.599 0.0625164 101.557 0.0590432 101.519 0.052097C101.449 0.0416776 101.377 0.0277851 101.307 0.0208388C101.252 0.0138926 101.196 0.0138927 101.137 0.0104195C101.081 0.0069464 101.026 0.00347328 100.97 0.00347328C100.904 0.00347328 100.838 0.00694631 100.772 0.0138926C100.727 0.0173657 100.679 0.0173657 100.634 0.0208388C100.55 0.0277851 100.47 0.0416777 100.387 0.0555702C100.359 0.0590433 100.332 0.0625164 100.3 0.0694627C99.2035 0.284796 98.228 1.02805 97.7663 2.14292L84.0546 35.2036C83.3221 36.9714 84.1587 38.9997 85.9256 39.7326C86.3596 39.9132 86.8108 39.9965 87.2517 39.9965C88.609 39.9965 89.9003 39.1907 90.4523 37.8571L93.1668 31.3137H108.84L111.575 37.8675C112.131 39.1977 113.419 40 114.772 40C115.217 40 115.671 39.9132 116.105 39.7326C117.879 38.9963 118.712 36.9645 117.976 35.1967ZM96.048 24.3848L100.984 12.4859L105.955 24.3848H96.048Z" fill="#040000"/>
<path d="M78.924 3.34809C78.8997 3.14665 78.8546 2.95215 78.7991 2.76113C78.7886 2.72987 78.7886 2.69861 78.7782 2.66736L78.74 2.54927C78.7262 2.50759 78.7053 2.46939 78.688 2.42771C78.6533 2.33741 78.6151 2.24711 78.5734 2.16028C78.5352 2.07692 78.4866 1.99704 78.4415 1.92063C78.3547 1.78171 78.261 1.6532 78.1673 1.54206L78.0874 1.44829C77.9937 1.3441 77.9104 1.26074 77.8375 1.19128C77.7889 1.1496 77.7438 1.10445 77.6917 1.06625C77.6605 1.04193 77.6257 1.01415 77.5945 0.986363C77.5806 0.975944 77.5702 0.965525 77.5563 0.955105C76.9731 0.517492 76.2546 0.246588 75.4701 0.246588C73.5435 0.246588 71.9779 1.80949 71.9779 3.74055C71.9779 5.66814 73.54 7.23452 75.4701 7.23452C75.5985 7.23452 75.7165 7.21021 75.8415 7.19631C75.8137 7.25188 75.7686 7.3144 75.7373 7.36997C75.7373 7.36997 75.1438 8.52305 73.7726 9.3427C73.6823 9.40522 73.599 9.47816 73.5053 9.53373C72.7485 9.97481 72.4326 10.27 72.5541 10.4228C72.6756 10.5757 73.1165 10.5062 73.8698 10.2145C75.4805 9.58582 76.7301 8.72449 77.6223 7.63393C78.1395 6.99834 78.5075 6.35234 78.7296 5.69592C78.7331 5.68898 78.7366 5.68203 78.7366 5.67508C78.983 4.65746 78.99 3.88642 78.924 3.34809Z" fill="#FDD200"/>
</svg>
