<svg width="125" height="30" viewBox="0 0 125 30" fill="none" xmlns="http://www.w3.org/2000/svg">
<g clip-path="url(#clip0_1_33)">
<path d="M118.42 0.5H111.841L118.42 10.1681H125L118.42 0.5Z" fill="#5316D8"/>
<path d="M19.7345 16.6135C19.7345 20.1714 16.7869 23.0589 13.1549 23.0589C9.52293 23.0589 6.57525 20.1714 6.57525 16.6135V0.5H0V16.6135C0 23.7335 5.89097 29.5043 13.1593 29.5043C20.4276 29.5043 26.3186 23.7335 26.3186 16.6135V0.5H19.7389V16.6135H19.7345Z" fill="#17181C"/>
<path d="M72.3673 0.5H65.7876V29.5H72.3673V0.5Z" fill="#17181C"/>
<path d="M118.42 10.1681H111.841V29.5H118.42V10.1681Z" fill="#17181C"/>
<path d="M52.6327 19.8319L39.4734 0.5H32.8938V29.5H39.4734V10.1681L52.6327 29.5H59.208V0.5H52.6327V19.8319Z" fill="#17181C"/>
<path d="M95.3916 0.5L75.6571 29.5H82.2367L86.6231 23.0546H98.6858V29.5H105.265V0.5H95.3916ZM98.6814 16.6135H91.0052L98.6814 5.33405V16.6135Z" fill="#17181C"/>
</g>
<defs>
<clipPath id="clip0_1_33">
<rect width="125" height="29" fill="white" transform="translate(0 0.5)"/>
</clipPath>
</defs>
</svg>
