<svg width="108" height="30" viewBox="0 0 108 30" fill="none" xmlns="http://www.w3.org/2000/svg">
<path d="M46.42 29.9996C44.9855 29.9996 43.8218 28.8353 43.8218 27.4V2.60477C43.8218 1.16951 44.9855 0.00515747 46.42 0.00515747C47.8545 0.00515747 49.0183 1.16951 49.0183 2.60477V27.4C49.0183 28.8353 47.8545 29.9996 46.42 29.9996Z" fill="#040000"/>
<path d="M105.087 29.9997C103.652 29.9997 102.489 28.8354 102.489 27.4001V27.3949C102.489 25.9596 103.652 24.7953 105.087 24.7953C106.521 24.7953 107.685 25.9596 107.685 27.3949V27.4001C107.685 28.8354 106.521 29.9997 105.087 29.9997Z" fill="#040000"/>
<path d="M94.9156 29.9971C93.4811 29.9971 92.3174 28.8327 92.3174 27.3975V2.59961C92.3174 1.16435 93.4811 0 94.9156 0C96.3501 0 97.5139 1.16435 97.5139 2.59961V27.3949C97.5139 28.8327 96.3501 29.9971 94.9156 29.9971Z" fill="#040000"/>
<path d="M56.5912 29.9996C55.1567 29.9996 53.9929 28.8352 53.9929 27.4V13.8601C53.9929 12.4249 55.1567 11.2605 56.5912 11.2605C58.0257 11.2605 59.1894 12.4249 59.1894 13.8601V27.4C59.1894 28.8352 58.0257 29.9996 56.5912 29.9996Z" fill="#040000"/>
<path d="M48.2971 25.9492L31.6271 1.16954C31.5751 1.0914 31.5178 1.01325 31.4579 0.940317C31.4527 0.935107 31.4475 0.929897 31.4423 0.924688C31.3928 0.867382 31.3408 0.810076 31.2887 0.757979C31.2627 0.731931 31.2366 0.711093 31.2106 0.685044C31.1741 0.653787 31.1403 0.619924 31.1038 0.588666C31.0726 0.562618 31.0414 0.541779 31.0075 0.515731C30.9711 0.489683 30.9372 0.46103 30.8982 0.437586C30.8695 0.416748 30.8383 0.401119 30.807 0.382885C30.7654 0.356837 30.7237 0.330789 30.6795 0.307345C30.6534 0.294321 30.6274 0.283902 30.6014 0.270878C30.5519 0.24483 30.4998 0.221386 30.4478 0.200548C30.4269 0.192733 30.4061 0.184919 30.3853 0.177104C30.328 0.153661 30.2681 0.132822 30.2082 0.114589C30.19 0.109379 30.1718 0.104169 30.1536 0.101565C30.0911 0.0833309 30.0286 0.0677019 29.9661 0.0546778C29.9401 0.0494682 29.9141 0.0468635 29.888 0.0416538C29.8307 0.0312345 29.7761 0.02342 29.7188 0.0182104C29.547 -2.33492e-05 29.3751 0.00258147 29.2033 0.0182104C29.1825 0.0208152 29.1617 0.02342 29.1434 0.0260248C29.0783 0.0338392 29.0159 0.0416537 28.9508 0.0546778C28.9195 0.0598875 28.8883 0.0703068 28.8597 0.0781213C28.8076 0.0911454 28.7555 0.101565 28.706 0.117194C28.6696 0.127613 28.6332 0.143242 28.5967 0.156266C28.5524 0.171895 28.5108 0.184919 28.4665 0.203153C28.4249 0.221386 28.3832 0.242225 28.3416 0.263063C28.3077 0.281297 28.2713 0.294321 28.2374 0.312555C28.1854 0.341208 28.1333 0.372466 28.0838 0.403724C28.063 0.416748 28.0396 0.429772 28.0161 0.442796C27.9458 0.489683 27.8808 0.539174 27.8183 0.591271C27.8183 0.591271 27.8157 0.591271 27.8157 0.593876C27.7532 0.645972 27.6933 0.700673 27.636 0.755374C27.6334 0.757979 27.6308 0.757979 27.6308 0.760584C27.5735 0.81789 27.5215 0.875196 27.472 0.935107C27.4694 0.937712 27.4668 0.942922 27.4616 0.945526C27.4147 1.00283 27.3705 1.06274 27.3288 1.12265C27.3236 1.13047 27.3158 1.14089 27.3106 1.1487C27.2741 1.2034 27.2403 1.26071 27.2065 1.32062C27.1986 1.33625 27.1882 1.35188 27.1778 1.36751C27.1492 1.4196 27.1257 1.4743 27.0997 1.52901C27.0893 1.55245 27.0763 1.57589 27.0685 1.59934C27.0476 1.65143 27.0294 1.70353 27.0112 1.75563C27.0008 1.78428 26.9904 1.81033 26.9826 1.83898C26.9643 1.89629 26.9513 1.9562 26.9383 2.01611C26.9331 2.03955 26.9253 2.06039 26.9227 2.08383C26.8862 2.26096 26.8706 2.4433 26.8706 2.62303V27.3949C26.8706 28.8301 28.0344 29.9945 29.4689 29.9945C30.9034 29.9945 32.0671 28.8301 32.0671 27.3949V11.1226L43.9936 28.851C44.4961 29.5959 45.3162 29.9997 46.1519 29.9997C46.6517 29.9997 47.1542 29.8564 47.5994 29.5569C48.784 28.7546 49.099 27.1396 48.2971 25.9492Z" fill="#040000"/>
<path d="M10.9398 30.0001C4.90754 30.0001 0 25.09 0 19.0547V2.61304C0 1.17778 1.16375 0.0134277 2.59826 0.0134277C4.03277 0.0134277 5.19652 1.17778 5.19652 2.61304V19.0547C5.19652 22.2221 7.77135 24.8009 10.9398 24.8009C14.1082 24.8009 16.683 22.2221 16.683 19.0547V2.61304C16.683 1.17778 17.8468 0.0134277 19.2813 0.0134277C20.7158 0.0134277 21.8795 1.17778 21.8795 2.61304V19.0547C21.8795 25.09 16.972 30.0001 10.9398 30.0001Z" fill="#040000"/>
<path d="M88.4813 26.3972L78.1273 1.60195C77.7784 0.768411 77.0495 0.213584 76.2268 0.0520856C76.1981 0.0468759 76.1669 0.0442711 76.1383 0.0390614C76.0862 0.031247 76.0315 0.0208277 75.9794 0.015618C75.9378 0.0104084 75.8961 0.0104084 75.8519 0.00780363C75.8102 0.00519881 75.7686 0.00259399 75.7269 0.00259399C75.6774 0.00259399 75.628 0.00519874 75.5785 0.0104084C75.5447 0.0130132 75.5082 0.0130132 75.4744 0.015618C75.4119 0.0208277 75.352 0.031247 75.2895 0.0416663C75.2687 0.0442711 75.2479 0.0468759 75.2244 0.0520856C74.4017 0.213584 73.6702 0.771016 73.3239 1.60716L63.0402 26.4024C62.4909 27.7283 63.1183 29.2495 64.4435 29.7991C64.7689 29.9346 65.1074 29.9971 65.438 29.9971C66.456 29.9971 67.4244 29.3928 67.8384 28.3925L69.8743 23.485H81.629L83.6805 28.4003C84.0971 29.398 85.0629 29.9997 86.0783 29.9997C86.4115 29.9997 86.7526 29.9346 87.078 29.7991C88.4084 29.2469 89.0332 27.7231 88.4813 26.3972ZM72.0352 18.2884L75.7373 9.36431L79.4655 18.2884H72.0352Z" fill="#040000"/>
<path d="M59.1924 2.51104C59.1742 2.35996 59.1404 2.21409 59.0987 2.07083C59.0909 2.04738 59.0909 2.02394 59.0831 2.0005L59.0545 1.91193C59.044 1.88067 59.0284 1.85202 59.0154 1.82076C58.9894 1.75304 58.9607 1.68531 58.9295 1.62019C58.9009 1.55768 58.8644 1.49777 58.8306 1.44046C58.7655 1.33627 58.6952 1.23989 58.6249 1.15653L58.565 1.0862C58.4947 1.00806 58.4322 0.945544 58.3776 0.893447C58.3411 0.862189 58.3073 0.828327 58.2682 0.799674C58.2448 0.78144 58.2187 0.760601 58.1953 0.739763C58.1849 0.731948 58.1771 0.724134 58.1667 0.71632C57.7293 0.388112 57.1904 0.184937 56.602 0.184937C55.1571 0.184937 53.9829 1.35711 53.9829 2.80538C53.9829 4.25106 55.1545 5.42583 56.602 5.42583C56.6983 5.42583 56.7868 5.4076 56.8806 5.39718C56.8597 5.43886 56.8259 5.48574 56.8025 5.52742C56.8025 5.52742 56.3573 6.39222 55.3289 7.00696C55.2612 7.05385 55.1987 7.10855 55.1284 7.15022C54.5609 7.48104 54.324 7.70245 54.4151 7.81706C54.5062 7.93167 54.8368 7.87957 55.4018 7.66077C56.6098 7.1893 57.5471 6.5433 58.2161 5.72539C58.6041 5.24871 58.88 4.76421 59.0467 4.2719C59.0493 4.26669 59.0519 4.26148 59.0519 4.25627C59.2367 3.49306 59.2419 2.91479 59.1924 2.51104Z" fill="#FDD200"/>
</svg>
