<svg width="158" height="44" viewBox="0 0 158 44" fill="none" xmlns="http://www.w3.org/2000/svg">
<path d="M68.1094 43.9394C66.0046 43.9394 64.2971 42.2341 64.2971 40.1319V3.81535C64.2971 1.71319 66.0046 0.0078125 68.1094 0.0078125C70.2142 0.0078125 71.9217 1.71319 71.9217 3.81535V40.1319C71.9217 42.2341 70.2142 43.9394 68.1094 43.9394Z" fill="#040000"/>
<path d="M154.188 43.9391C152.083 43.9391 150.375 42.2337 150.375 40.1316V40.1239C150.375 38.0218 152.083 36.3164 154.188 36.3164C156.293 36.3164 158 38.0218 158 40.1239V40.1316C158 42.2337 156.293 43.9391 154.188 43.9391Z" fill="#040000"/>
<path d="M139.267 43.9355C137.162 43.9355 135.455 42.2301 135.455 40.1279V3.80754C135.455 1.70538 137.162 0 139.267 0C141.372 0 143.079 1.70538 143.079 3.80754V40.1241C143.079 42.2301 141.372 43.9355 139.267 43.9355Z" fill="#040000"/>
<path d="M83.0338 43.9395C80.9291 43.9395 79.2216 42.2341 79.2216 40.1319V20.3007C79.2216 18.1985 80.9291 16.4932 83.0338 16.4932C85.1386 16.4932 86.8461 18.1985 86.8461 20.3007V40.1319C86.8461 42.2341 85.1386 43.9395 83.0338 43.9395Z" fill="#040000"/>
<path d="M70.8635 38.0069L46.4045 1.71323C46.3281 1.59878 46.2441 1.48432 46.1562 1.3775C46.1486 1.36987 46.1409 1.36224 46.1333 1.3546C46.0607 1.27067 45.9843 1.18674 45.9079 1.11043C45.8697 1.07228 45.8315 1.04176 45.7933 1.00361C45.7399 0.957828 45.6902 0.90823 45.6367 0.862448C45.5909 0.824297 45.545 0.793775 45.4954 0.755624C45.4419 0.717472 45.3922 0.675505 45.3349 0.641169C45.2929 0.610647 45.2471 0.587756 45.2012 0.56105C45.1401 0.522899 45.079 0.484747 45.0141 0.45041C44.9759 0.431335 44.9377 0.416074 44.8995 0.396998C44.8269 0.358847 44.7505 0.32451 44.6741 0.293989C44.6435 0.282543 44.613 0.271098 44.5824 0.259652C44.4984 0.225316 44.4105 0.194794 44.3227 0.168088C44.2959 0.160458 44.2692 0.152828 44.2424 0.149013C44.1508 0.122306 44.0591 0.0994153 43.9674 0.0803394C43.9292 0.0727091 43.891 0.068894 43.8528 0.0612637C43.7688 0.046003 43.6886 0.0345575 43.6045 0.0269271C43.3524 0.000220986 43.1003 0.00403615 42.8482 0.0269271C42.8176 0.0307423 42.787 0.0345574 42.7603 0.0383725C42.6648 0.049818 42.5731 0.0612636 42.4776 0.0803394C42.4318 0.0879698 42.386 0.10323 42.3439 0.114676C42.2675 0.133752 42.1911 0.149013 42.1186 0.171904C42.0651 0.187164 42.0116 0.210055 41.9581 0.229131C41.8932 0.252022 41.8321 0.271098 41.7671 0.297804C41.706 0.32451 41.6449 0.355031 41.5838 0.385553C41.5341 0.412259 41.4806 0.431335 41.431 0.458041C41.3546 0.500008 41.2782 0.54579 41.2056 0.591572C41.175 0.610647 41.1407 0.629723 41.1063 0.648799C41.0031 0.717472 40.9076 0.78996 40.816 0.866264C40.816 0.866264 40.8121 0.866264 40.8121 0.870079C40.7205 0.946382 40.6326 1.0265 40.5486 1.10662C40.5447 1.11043 40.5409 1.11043 40.5409 1.11425C40.4569 1.19818 40.3805 1.28212 40.3079 1.36987C40.3041 1.37368 40.3003 1.38131 40.2926 1.38513C40.2239 1.46906 40.1589 1.55681 40.0978 1.64456C40.0902 1.656 40.0787 1.67126 40.0711 1.68271C40.0176 1.76283 39.9679 1.84676 39.9183 1.93451C39.9068 1.9574 39.8915 1.98029 39.8763 2.00318C39.8342 2.07949 39.7999 2.15961 39.7617 2.23972C39.7464 2.27406 39.7273 2.3084 39.7158 2.34273C39.6853 2.41904 39.6585 2.49534 39.6318 2.57164C39.6165 2.61361 39.6012 2.65176 39.5898 2.69373C39.563 2.77766 39.5439 2.86541 39.5248 2.95316C39.5172 2.9875 39.5057 3.01802 39.5019 3.05235C39.4484 3.31179 39.4255 3.57885 39.4255 3.84209V40.1243C39.4255 42.2265 41.133 43.9319 43.2378 43.9319C45.3426 43.9319 47.0501 42.2265 47.0501 40.1243V16.291L64.5492 42.257C65.2864 43.3481 66.4897 43.9395 67.7159 43.9395C68.4493 43.9395 69.1866 43.7297 69.8398 43.2909C71.5779 42.1158 72.0401 39.7504 70.8635 38.0069Z" fill="#040000"/>
<path d="M16.0514 43.9392C7.20057 43.9392 0 36.7477 0 27.9079V3.82658C0 1.72442 1.70751 0.019043 3.81229 0.019043C5.91707 0.019043 7.62458 1.72442 7.62458 3.82658V27.9079C7.62458 32.5471 11.4025 36.3242 16.0514 36.3242C20.7002 36.3242 24.4781 32.5471 24.4781 27.9079V3.82658C24.4781 1.72442 26.1856 0.019043 28.2904 0.019043C30.3952 0.019043 32.1027 1.72442 32.1027 3.82658V27.9079C32.1027 36.7477 24.9021 43.9392 16.0514 43.9392Z" fill="#040000"/>
<path d="M129.824 38.663L114.632 2.34642C114.12 1.12556 113.051 0.312935 111.844 0.0763944C111.802 0.0687641 111.756 0.0649488 111.714 0.0573185C111.637 0.045873 111.557 0.0306123 111.481 0.022982C111.42 0.0153516 111.359 0.0153517 111.294 0.0115366C111.233 0.00772141 111.171 0.00390625 111.11 0.00390625C111.038 0.00390625 110.965 0.00772131 110.893 0.0153516C110.843 0.0191668 110.789 0.0191668 110.74 0.022982C110.648 0.0306123 110.56 0.0458731 110.469 0.0611338C110.438 0.0649489 110.407 0.0687641 110.373 0.0763944C109.166 0.312935 108.093 1.12938 107.585 2.35405L92.4958 38.6706C91.6898 40.6125 92.6104 42.8406 94.5548 43.6456C95.0322 43.844 95.5288 43.9355 96.014 43.9355C97.5076 43.9355 98.9286 43.0504 99.536 41.5854L102.523 34.3976H119.77L122.78 41.5968C123.391 43.0581 124.809 43.9394 126.298 43.9394C126.787 43.9394 127.288 43.844 127.765 43.6456C129.717 42.8368 130.634 40.6049 129.824 38.663ZM105.694 26.7864L111.126 13.7156L116.596 26.7864H105.694Z" fill="#040000"/>
<path d="M86.85 3.67794C86.8232 3.45666 86.7736 3.24301 86.7125 3.03318C86.701 2.99884 86.701 2.9645 86.6895 2.93017L86.6475 2.80045C86.6322 2.75467 86.6093 2.7127 86.5902 2.66692C86.552 2.56773 86.51 2.46853 86.4642 2.37315C86.4221 2.28159 86.3687 2.19384 86.319 2.10991C86.2235 1.9573 86.1204 1.81614 86.0172 1.69405L85.9294 1.59104C85.8262 1.47659 85.7346 1.38502 85.6543 1.30872C85.6009 1.26294 85.5512 1.21334 85.4939 1.17138C85.4595 1.14467 85.4213 1.11415 85.3869 1.08363C85.3717 1.07218 85.3602 1.06074 85.3449 1.04929C84.7032 0.568579 83.9125 0.270996 83.0491 0.270996C80.9291 0.270996 79.2063 1.98782 79.2063 4.10905C79.2063 6.22647 80.9253 7.94711 83.0491 7.94711C83.1905 7.94711 83.3204 7.9204 83.4579 7.90514C83.4273 7.96619 83.3777 8.03486 83.3433 8.0959C83.3433 8.0959 82.6901 9.36254 81.1812 10.2629C81.0819 10.3316 80.9902 10.4117 80.8871 10.4727C80.0543 10.9573 79.7067 11.2816 79.8404 11.4494C79.9741 11.6173 80.4592 11.541 81.2882 11.2205C83.0606 10.53 84.4358 9.58382 85.4175 8.38585C85.9867 7.68768 86.3916 6.97806 86.6361 6.25699C86.6399 6.24936 86.6437 6.24173 86.6437 6.2341C86.9149 5.11626 86.9226 4.26929 86.85 3.67794Z" fill="#FDD200"/>
</svg>
