<svg width="120" height="34" viewBox="0 0 120 34" fill="none" xmlns="http://www.w3.org/2000/svg">
<path d="M51.7287 33.9327C50.1301 33.9327 48.8333 32.6375 48.8333 31.0409V3.45869C48.8333 1.86212 50.1301 0.566895 51.7287 0.566895C53.3272 0.566895 54.6241 1.86212 54.6241 3.45869V31.0409C54.6241 32.6375 53.3272 33.9327 51.7287 33.9327Z" fill="#040000"/>
<path d="M117.105 33.9327C115.506 33.9327 114.209 32.6375 114.209 31.0409V31.0351C114.209 29.4385 115.506 28.1433 117.105 28.1433C118.703 28.1433 120 29.4385 120 31.0351V31.0409C120 32.6375 118.703 33.9327 117.105 33.9327Z" fill="#040000"/>
<path d="M105.773 33.9297C104.174 33.9297 102.877 32.6345 102.877 31.0379V3.45283C102.877 1.85626 104.174 0.561035 105.773 0.561035C107.371 0.561035 108.668 1.85626 108.668 3.45283V31.035C108.668 32.6345 107.371 33.9297 105.773 33.9297Z" fill="#040000"/>
<path d="M63.0636 33.9327C61.4651 33.9327 60.1682 32.6375 60.1682 31.0409V15.9792C60.1682 14.3826 61.4651 13.0874 63.0636 13.0874C64.6622 13.0874 65.959 14.3826 65.959 15.9792V31.0409C65.959 32.6375 64.6622 33.9327 63.0636 33.9327Z" fill="#040000"/>
<path d="M53.8203 29.4268L35.2439 1.86202C35.1859 1.77509 35.122 1.68817 35.0553 1.60703C35.0495 1.60124 35.0437 1.59544 35.0379 1.58965C34.9828 1.5259 34.9247 1.46215 34.8667 1.4042C34.8377 1.37523 34.8087 1.35205 34.7797 1.32307C34.7391 1.2883 34.7013 1.25063 34.6607 1.21586C34.6259 1.18688 34.5911 1.1637 34.5534 1.13473C34.5128 1.10575 34.4751 1.07388 34.4315 1.0478C34.3996 1.02462 34.3648 1.00723 34.33 0.986948C34.2836 0.957972 34.2372 0.928996 34.1878 0.902918C34.1588 0.88843 34.1298 0.87684 34.1008 0.862352C34.0457 0.833376 33.9876 0.807298 33.9296 0.784117C33.9064 0.775424 33.8832 0.766731 33.86 0.758038C33.7962 0.73196 33.7294 0.708779 33.6627 0.688496C33.6424 0.682701 33.6221 0.676906 33.6018 0.674008C33.5322 0.653725 33.4625 0.63634 33.3929 0.621852C33.3639 0.616056 33.3349 0.613159 33.3059 0.607364C33.242 0.595773 33.1811 0.58708 33.1173 0.581285C32.9258 0.561002 32.7343 0.5639 32.5428 0.581285C32.5196 0.584183 32.4964 0.58708 32.4761 0.589978C32.4036 0.598671 32.334 0.607364 32.2614 0.621852C32.2266 0.627647 32.1918 0.639237 32.1599 0.64793C32.1019 0.662418 32.0438 0.674008 31.9887 0.691394C31.9481 0.702984 31.9075 0.72037 31.8669 0.734858C31.8175 0.752243 31.7711 0.766731 31.7218 0.787014C31.6754 0.807298 31.629 0.830478 31.5825 0.853659C31.5448 0.873942 31.5042 0.88843 31.4665 0.908713C31.4085 0.940587 31.3504 0.975358 31.2953 1.01013C31.2721 1.02462 31.246 1.03911 31.2199 1.05359C31.1416 1.10575 31.069 1.1608 30.9994 1.21876C30.9994 1.21876 30.9965 1.21876 30.9965 1.22165C30.9269 1.27961 30.8601 1.34045 30.7963 1.4013C30.7934 1.4042 30.7905 1.4042 30.7905 1.4071C30.7267 1.47085 30.6687 1.53459 30.6135 1.60124C30.6106 1.60414 30.6077 1.60993 30.6019 1.61283C30.5497 1.67658 30.5004 1.74322 30.454 1.80987C30.4482 1.81856 30.4395 1.83015 30.4337 1.83884C30.393 1.89969 30.3553 1.96344 30.3176 2.03008C30.3089 2.04747 30.2973 2.06485 30.2857 2.08224C30.2538 2.14019 30.2277 2.20104 30.1987 2.26189C30.1871 2.28797 30.1726 2.31405 30.1639 2.34012C30.1406 2.39808 30.1203 2.45603 30.1 2.51398C30.0884 2.54585 30.0768 2.57483 30.0681 2.6067C30.0478 2.67045 30.0333 2.7371 30.0188 2.80374C30.013 2.82982 30.0043 2.853 30.0014 2.87908C29.9608 3.07611 29.9434 3.27894 29.9434 3.47888V31.035C29.9434 32.6316 31.2402 33.9268 32.8388 33.9268C34.4373 33.9268 35.7342 32.6316 35.7342 31.035V12.9337L49.0246 32.6548C49.5846 33.4835 50.4985 33.9326 51.4297 33.9326C51.9868 33.9326 52.5467 33.7732 53.0428 33.44C54.3629 32.5475 54.7139 30.751 53.8203 29.4268Z" fill="#040000"/>
<path d="M12.1909 33.9325C5.46879 33.9325 0 28.4706 0 21.7569V3.46724C0 1.87066 1.29684 0.575439 2.89541 0.575439C4.49398 0.575439 5.79082 1.87066 5.79082 3.46724V21.7569C5.79082 25.2803 8.66012 28.1489 12.1909 28.1489C15.7217 28.1489 18.591 25.2803 18.591 21.7569V3.46724C18.591 1.87066 19.8878 0.575439 21.4864 0.575439C23.085 0.575439 24.3818 1.87066 24.3818 3.46724V21.7569C24.3818 28.4706 18.913 33.9325 12.1909 33.9325Z" fill="#040000"/>
<path d="M98.6006 29.9253L87.0625 2.34309C86.6737 1.41586 85.8614 0.79867 84.9446 0.619019C84.9127 0.613224 84.8779 0.610326 84.846 0.604531C84.788 0.595838 84.727 0.584248 84.669 0.578453C84.6226 0.572658 84.5762 0.572658 84.5268 0.56976C84.4804 0.566862 84.434 0.563965 84.3876 0.563965C84.3325 0.563965 84.2773 0.566862 84.2222 0.572658C84.1845 0.575555 84.1439 0.575555 84.1062 0.578453C84.0365 0.584248 83.9698 0.595838 83.9002 0.607429C83.877 0.610326 83.8538 0.613224 83.8276 0.619019C82.9109 0.79867 82.0956 1.41876 81.7098 2.34888L70.25 29.9311C69.6378 31.406 70.337 33.0981 71.8137 33.7095C72.1764 33.8602 72.5535 33.9298 72.922 33.9298C74.0564 33.9298 75.1356 33.2575 75.5969 32.1448L77.8657 26.6858H90.9646L93.2508 32.1535C93.715 33.2633 94.7913 33.9327 95.9228 33.9327C96.2942 33.9327 96.6742 33.8602 97.0369 33.7095C98.5194 33.0953 99.2157 31.4002 98.6006 29.9253ZM80.2737 20.9051L84.3992 10.9779L88.5537 20.9051H80.2737Z" fill="#040000"/>
<path d="M65.9621 3.35415C65.9418 3.18609 65.904 3.02383 65.8576 2.86446C65.8489 2.83838 65.8489 2.8123 65.8402 2.78622L65.8083 2.68771C65.7967 2.65294 65.7793 2.62106 65.7648 2.58629C65.7358 2.51095 65.7039 2.43562 65.669 2.36318C65.6371 2.29363 65.5965 2.22699 65.5588 2.16324C65.4863 2.04734 65.4079 1.94013 65.3296 1.8474L65.2629 1.76917C65.1845 1.68224 65.1149 1.6127 65.054 1.55475C65.0134 1.51998 64.9757 1.48231 64.9321 1.45043C64.906 1.43015 64.877 1.40697 64.8509 1.38379C64.8393 1.3751 64.8306 1.3664 64.819 1.35771C64.3316 0.992614 63.731 0.766602 63.0754 0.766602C61.4652 0.766602 60.1567 2.07052 60.1567 3.68158C60.1567 5.28975 61.4623 6.59656 63.0754 6.59656C63.1827 6.59656 63.2813 6.57628 63.3858 6.56469C63.3626 6.61105 63.3249 6.66321 63.2987 6.70957C63.2987 6.70957 62.8026 7.67157 61.6567 8.3554C61.5812 8.40756 61.5116 8.46841 61.4333 8.51477C60.8008 8.88276 60.5368 9.12906 60.6383 9.25655C60.7399 9.38405 61.1083 9.32609 61.7379 9.0827C63.0841 8.55823 64.1285 7.83963 64.8741 6.92978C65.3064 6.39952 65.6139 5.86057 65.7996 5.31293C65.8025 5.30713 65.8054 5.30134 65.8054 5.29554C66.0114 4.44655 66.0172 3.80328 65.9621 3.35415Z" fill="#FDD200"/>
</svg>
