<svg width="108" height="29" viewBox="0 0 108 29" fill="none" xmlns="http://www.w3.org/2000/svg">
<path d="M46.5024 28.2567C45.0654 28.2567 43.8995 27.16 43.8995 25.8082V2.45368C43.8995 1.10182 45.0654 0.00512695 46.5024 0.00512695C47.9395 0.00512695 49.1053 1.10182 49.1053 2.45368V25.8082C49.1053 27.16 47.9395 28.2567 46.5024 28.2567Z" fill="#040000"/>
<path d="M105.273 28.2565C103.836 28.2565 102.67 27.1598 102.67 25.808V25.803C102.67 24.4512 103.836 23.3545 105.273 23.3545C106.71 23.3545 107.876 24.4512 107.876 25.803V25.808C107.876 27.1598 106.71 28.2565 105.273 28.2565Z" fill="#040000"/>
<path d="M95.086 28.2541C93.649 28.2541 92.4832 27.1574 92.4832 25.8055V2.44855C92.4832 1.0967 93.649 0 95.086 0C96.5231 0 97.6889 1.0967 97.6889 2.44855V25.8031C97.6889 27.1574 96.5231 28.2541 95.086 28.2541Z" fill="#040000"/>
<path d="M56.6922 28.2564C55.2552 28.2564 54.0894 27.1597 54.0894 25.8078V13.0548C54.0894 11.7029 55.2552 10.6062 56.6922 10.6062C58.1293 10.6062 59.2951 11.7029 59.2951 13.0548V25.8078C59.2951 27.1597 58.1293 28.2564 56.6922 28.2564Z" fill="#040000"/>
<path d="M48.3828 24.4418L31.6832 1.10202C31.631 1.02842 31.5736 0.954816 31.5137 0.886119C31.5084 0.881212 31.5032 0.876305 31.498 0.871398C31.4485 0.817422 31.3963 0.763446 31.3441 0.714377C31.318 0.689842 31.292 0.670214 31.2659 0.64568C31.2294 0.616238 31.1955 0.584343 31.159 0.554901C31.1277 0.530367 31.0964 0.510739 31.0624 0.486205C31.0259 0.46167 30.992 0.434682 30.9529 0.412601C30.9242 0.392973 30.8929 0.378252 30.8616 0.361078C30.8199 0.336543 30.7782 0.312009 30.7338 0.289928C30.7077 0.27766 30.6817 0.267847 30.6556 0.255579C30.606 0.231045 30.5539 0.208963 30.5017 0.189336C30.4808 0.181975 30.46 0.174615 30.4391 0.167255C30.3817 0.145173 30.3218 0.125546 30.2618 0.108372C30.2435 0.103465 30.2253 0.0985578 30.207 0.0961043C30.1444 0.0789301 30.0818 0.0642092 30.0192 0.0519419C29.9931 0.047035 29.9671 0.0445816 29.941 0.0396747C29.8836 0.0298608 29.8288 0.0225004 29.7714 0.0175935C29.5993 0.000419271 29.4272 0.00287273 29.255 0.0175935C29.2342 0.020047 29.2133 0.0225004 29.1951 0.0249538C29.1299 0.0323142 29.0673 0.0396746 29.0021 0.0519419C28.9708 0.0568488 28.9395 0.0666627 28.9108 0.0740231C28.8586 0.0862904 28.8064 0.0961043 28.7569 0.110825C28.7204 0.120639 28.6839 0.13536 28.6474 0.147627C28.603 0.162348 28.5613 0.174615 28.5169 0.191789C28.4752 0.208963 28.4335 0.228591 28.3918 0.248219C28.3579 0.265393 28.3213 0.27766 28.2874 0.294835C28.2353 0.321823 28.1831 0.351264 28.1336 0.380706C28.1127 0.392973 28.0892 0.40524 28.0657 0.417508C27.9953 0.46167 27.9301 0.508286 27.8675 0.557355C27.8675 0.557355 27.8649 0.557355 27.8649 0.559808C27.8023 0.608878 27.7423 0.6604 27.685 0.711923C27.6824 0.714376 27.6797 0.714377 27.6797 0.71683C27.6224 0.770806 27.5702 0.824782 27.5207 0.881212C27.518 0.883665 27.5154 0.888572 27.5102 0.891026C27.4633 0.945002 27.4189 1.00143 27.3772 1.05786C27.372 1.06522 27.3642 1.07504 27.359 1.0824C27.3224 1.13392 27.2885 1.18789 27.2546 1.24432C27.2468 1.25904 27.2364 1.27377 27.2259 1.28849C27.1972 1.33756 27.1738 1.38908 27.1477 1.4406C27.1373 1.46268 27.1242 1.48476 27.1164 1.50684C27.0955 1.55591 27.0773 1.60498 27.059 1.65405C27.0486 1.68104 27.0382 1.70557 27.0303 1.73256C27.0121 1.78654 26.999 1.84297 26.986 1.8994C26.9808 1.92148 26.973 1.94111 26.9703 1.96319C26.9338 2.13002 26.9182 2.30177 26.9182 2.47105V25.8035C26.9182 27.1553 28.084 28.252 29.5211 28.252C30.9581 28.252 32.1239 27.1553 32.1239 25.8035V10.4767L44.0716 27.175C44.575 27.8766 45.3966 28.2569 46.2338 28.2569C46.7345 28.2569 47.2379 28.122 47.6839 27.8398C48.8705 27.0842 49.1861 25.563 48.3828 24.4418Z" fill="#040000"/>
<path d="M10.9592 28.2567C4.91627 28.2567 0 23.6319 0 17.9473V2.46101C0 1.10915 1.16582 0.0124512 2.60288 0.0124512C4.03994 0.0124512 5.20576 1.10915 5.20576 2.46101V17.9473C5.20576 20.9307 7.78517 23.3596 10.9592 23.3596C14.1333 23.3596 16.7127 20.9307 16.7127 17.9473V2.46101C16.7127 1.10915 17.8785 0.0124512 19.3156 0.0124512C20.7526 0.0124512 21.9185 1.10915 21.9185 2.46101V17.9473C21.9185 23.6319 17.0022 28.2567 10.9592 28.2567Z" fill="#040000"/>
<path d="M88.6388 24.8636L78.2664 1.50911C77.9169 0.724003 77.1867 0.201416 76.3625 0.0493013C76.3338 0.0443944 76.3025 0.0419409 76.2738 0.037034C76.2217 0.0296736 76.1669 0.0198597 76.1147 0.0149528C76.073 0.0100459 76.0313 0.0100459 75.987 0.00759246C75.9452 0.005139 75.9035 0.00268555 75.8618 0.00268555C75.8122 0.00268555 75.7627 0.00513894 75.7131 0.0100459C75.6792 0.0124993 75.6427 0.0124993 75.6088 0.0149528C75.5462 0.0198597 75.4862 0.0296736 75.4236 0.0394875C75.4027 0.0419409 75.3819 0.0443944 75.3584 0.0493013C74.5342 0.201416 73.8014 0.726457 73.4545 1.51402L63.1525 24.8685C62.6022 26.1173 63.2307 27.5501 64.5583 28.0678C64.8843 28.1954 65.2233 28.2543 65.5546 28.2543C66.5743 28.2543 67.5445 27.6851 67.9592 26.743L69.9988 22.1206H81.7743L83.8295 26.7503C84.2468 27.69 85.2144 28.2567 86.2316 28.2567C86.5654 28.2567 86.9071 28.1954 87.2331 28.0678C88.5658 27.5477 89.1917 26.1124 88.6388 24.8636ZM72.1635 17.226L75.8722 8.82043L79.607 17.226H72.1635Z" fill="#040000"/>
<path d="M59.2977 2.36526C59.2795 2.22296 59.2456 2.08556 59.2038 1.95062C59.196 1.92854 59.196 1.90646 59.1882 1.88438L59.1595 1.80096C59.1491 1.77152 59.1334 1.74453 59.1204 1.71509C59.0943 1.6513 59.0656 1.58751 59.0343 1.52617C59.0056 1.46729 58.9691 1.41086 58.9352 1.35688C58.87 1.25875 58.7996 1.16797 58.7292 1.08946L58.6692 1.02321C58.5988 0.94961 58.5362 0.890727 58.4814 0.841658C58.4449 0.812216 58.411 0.780321 58.3718 0.753333C58.3484 0.736159 58.3223 0.716531 58.2988 0.696903C58.2884 0.689543 58.2806 0.682183 58.2701 0.674822C57.832 0.365686 57.2921 0.174316 56.7027 0.174316C55.2552 0.174316 54.0789 1.27837 54.0789 2.6425C54.0789 4.00417 55.2526 5.11068 56.7027 5.11068C56.7992 5.11068 56.8878 5.09351 56.9817 5.08369C56.9609 5.12295 56.927 5.16711 56.9035 5.20637C56.9035 5.20637 56.4575 6.02091 55.4273 6.59993C55.3595 6.64409 55.2969 6.69562 55.2265 6.73487C54.6579 7.04646 54.4206 7.25501 54.5119 7.36296C54.6031 7.47091 54.9344 7.42184 55.5003 7.21575C56.7105 6.77167 57.6494 6.16322 58.3197 5.39283C58.7083 4.94384 58.9848 4.4875 59.1517 4.0238C59.1543 4.01889 59.1569 4.01398 59.1569 4.00908C59.3421 3.29021 59.3473 2.74554 59.2977 2.36526Z" fill="#FDD200"/>
</svg>
