<svg width="87" height="24" viewBox="0 0 87 24" fill="none" xmlns="http://www.w3.org/2000/svg">
<path d="M37.1362 23.9997C35.9886 23.9997 35.0576 23.0682 35.0576 21.92V2.08381C35.0576 0.935603 35.9886 0.00411987 37.1362 0.00411987C38.2838 0.00411987 39.2148 0.935603 39.2148 2.08381V21.92C39.2148 23.0682 38.2838 23.9997 37.1362 23.9997Z" fill="#040000"/>
<path d="M84.0693 23.9998C82.9217 23.9998 81.9907 23.0683 81.9907 21.9201V21.9159C81.9907 20.7677 82.9217 19.8362 84.0693 19.8362C85.2169 19.8362 86.1479 20.7677 86.1479 21.9159V21.9201C86.1479 23.0683 85.2169 23.9998 84.0693 23.9998Z" fill="#040000"/>
<path d="M75.9326 23.9977C74.785 23.9977 73.854 23.0662 73.854 21.918V2.07969C73.854 0.931484 74.785 0 75.9326 0C77.0802 0 78.0112 0.931484 78.0112 2.07969V21.9159C78.0112 23.0662 77.0802 23.9977 75.9326 23.9977Z" fill="#040000"/>
<path d="M45.2729 23.9996C44.1253 23.9996 43.1943 23.0682 43.1943 21.92V11.0881C43.1943 9.93988 44.1253 9.00839 45.2729 9.00839C46.4206 9.00839 47.3516 9.93988 47.3516 11.0881V21.92C47.3516 23.0682 46.4206 23.9996 45.2729 23.9996Z" fill="#040000"/>
<path d="M38.6378 20.7594L25.3018 0.935633C25.2602 0.873117 25.2143 0.810601 25.1664 0.752253C25.1623 0.748086 25.1581 0.743918 25.1539 0.73975C25.1144 0.693905 25.0727 0.648061 25.031 0.606384C25.0102 0.585545 24.9894 0.568874 24.9686 0.548036C24.9394 0.523029 24.9123 0.495939 24.8832 0.470933C24.8582 0.450094 24.8332 0.433423 24.8061 0.412585C24.7769 0.391746 24.7499 0.368824 24.7186 0.350069C24.6957 0.333398 24.6707 0.320895 24.6457 0.306308C24.6124 0.28547 24.5791 0.264631 24.5437 0.245876C24.5229 0.235457 24.502 0.227122 24.4812 0.216702C24.4416 0.195864 24.4 0.177109 24.3583 0.160438C24.3416 0.154187 24.325 0.147935 24.3083 0.141683C24.2625 0.122929 24.2146 0.106258 24.1667 0.091671C24.1521 0.0875033 24.1375 0.0833356 24.123 0.0812517C24.073 0.0666648 24.023 0.0541616 23.973 0.0437423C23.9522 0.0395746 23.9313 0.0374908 23.9105 0.033323C23.8647 0.0249876 23.821 0.018736 23.7751 0.0145683C23.6377 -1.86795e-05 23.5002 0.00206518 23.3627 0.0145683C23.3461 0.0166522 23.3294 0.018736 23.3148 0.0208198C23.2628 0.0270714 23.2128 0.033323 23.1607 0.0437423C23.1357 0.04791 23.1107 0.0562454 23.0878 0.062497C23.0462 0.0729163 23.0045 0.0812517 22.9649 0.0937549C22.9358 0.10209 22.9066 0.114593 22.8775 0.125013C22.8421 0.137516 22.8087 0.147935 22.7733 0.162522C22.74 0.177109 22.7067 0.19378 22.6733 0.210451C22.6463 0.225038 22.6171 0.235457 22.59 0.250044C22.5484 0.272967 22.5067 0.297973 22.4672 0.322979C22.4505 0.333398 22.4317 0.343818 22.413 0.354237C22.3568 0.391746 22.3047 0.43134 22.2547 0.473017C22.2547 0.473017 22.2526 0.473017 22.2526 0.475101C22.2026 0.516778 22.1547 0.560539 22.1089 0.6043C22.1068 0.606383 22.1048 0.606384 22.1048 0.608467C22.0589 0.654312 22.0173 0.700157 21.9777 0.748086C21.9756 0.750169 21.9735 0.754337 21.9694 0.756421C21.9319 0.802266 21.8965 0.850195 21.8632 0.898123C21.859 0.904375 21.8527 0.91271 21.8486 0.918962C21.8194 0.962723 21.7923 1.00857 21.7653 1.0565C21.759 1.069 21.7507 1.0815 21.7423 1.09401C21.7194 1.13568 21.7007 1.17944 21.6799 1.2232C21.6715 1.24196 21.6611 1.26071 21.6549 1.27947C21.6382 1.32115 21.6236 1.36282 21.6091 1.4045C21.6007 1.42742 21.5924 1.44826 21.5861 1.47118C21.5716 1.51703 21.5611 1.56496 21.5507 1.61289C21.5466 1.63164 21.5403 1.64831 21.5382 1.66707C21.5091 1.80877 21.4966 1.95464 21.4966 2.09842V21.9159C21.4966 23.0641 22.4276 23.9956 23.5752 23.9956C24.7228 23.9956 25.6538 23.0641 25.6538 21.9159V8.89805L35.195 23.0808C35.597 23.6768 36.253 23.9998 36.9216 23.9998C37.3215 23.9998 37.7235 23.8851 38.0796 23.6455C39.0273 23.0037 39.2793 21.7117 38.6378 20.7594Z" fill="#040000"/>
<path d="M8.75182 24.0001C3.92603 24.0001 0 20.072 0 15.2437V2.09043C0 0.942225 0.931 0.0107422 2.07861 0.0107422C3.22622 0.0107422 4.15722 0.942225 4.15722 2.09043V15.2437C4.15722 17.7777 6.21708 19.8407 8.75182 19.8407C11.2866 19.8407 13.3464 17.7777 13.3464 15.2437V2.09043C13.3464 0.942225 14.2774 0.0107422 15.425 0.0107422C16.5726 0.0107422 17.5036 0.942225 17.5036 2.09043V15.2437C17.5036 20.072 13.5776 24.0001 8.75182 24.0001Z" fill="#040000"/>
<path d="M70.7849 21.1178L62.5017 1.28156C62.2227 0.614729 61.6395 0.170867 60.9813 0.0416685C60.9584 0.0375007 60.9334 0.0354169 60.9105 0.0312491C60.8689 0.0249976 60.8251 0.0166621 60.7835 0.0124944C60.7501 0.0083267 60.7168 0.00832676 60.6814 0.0062429C60.6481 0.00415905 60.6147 0.0020752 60.5814 0.0020752C60.5419 0.0020752 60.5023 0.004159 60.4627 0.00832671C60.4356 0.0104106 60.4065 0.0104106 60.3794 0.0124944C60.3294 0.0166621 60.2815 0.0249976 60.2315 0.033333C60.2149 0.0354169 60.1982 0.0375007 60.1795 0.0416685C59.5213 0.170867 58.936 0.616813 58.659 1.28573L50.4321 21.1219C49.9926 22.1826 50.4946 23.3996 51.5547 23.8393C51.815 23.9477 52.0858 23.9977 52.3503 23.9977C53.1647 23.9977 53.9395 23.5142 54.2706 22.714L55.8994 18.788H65.3031L66.9443 22.7203C67.2775 23.5184 68.0503 23.9998 68.8625 23.9998C69.1291 23.9998 69.402 23.9477 69.6623 23.8393C70.7266 23.3975 71.2265 22.1785 70.7849 21.1178ZM57.6281 14.6307L60.5898 7.49145L63.5723 14.6307H57.6281Z" fill="#040000"/>
<path d="M47.3542 2.00883C47.3396 1.88797 47.3125 1.77127 47.2792 1.65666C47.2729 1.63791 47.2729 1.61915 47.2667 1.6004L47.2438 1.52955C47.2354 1.50454 47.2229 1.48162 47.2125 1.45661C47.1917 1.40243 47.1688 1.34825 47.1438 1.29615C47.1209 1.24614 47.0917 1.19821 47.0646 1.15237C47.0126 1.06901 46.9563 0.991911 46.9001 0.925227L46.8522 0.868963C46.796 0.806448 46.746 0.756435 46.7022 0.714758C46.6731 0.689752 46.646 0.662661 46.6148 0.639739C46.596 0.625152 46.5752 0.608481 46.5564 0.59181C46.5481 0.585559 46.5419 0.579307 46.5335 0.573056C46.1836 0.31049 45.7525 0.147949 45.2818 0.147949C44.1259 0.147949 43.1865 1.08568 43.1865 2.24431C43.1865 3.40085 44.1238 4.34067 45.2818 4.34067C45.3589 4.34067 45.4297 4.32608 45.5046 4.31774C45.488 4.35109 45.4609 4.3886 45.4422 4.42194C45.4422 4.42194 45.086 5.11378 44.2633 5.60557C44.2092 5.64308 44.1592 5.68684 44.1029 5.72018C43.6489 5.98483 43.4594 6.16196 43.5323 6.25365C43.6052 6.34534 43.8697 6.30366 44.3216 6.12861C45.288 5.75144 46.0378 5.23464 46.5731 4.58031C46.8834 4.19896 47.1042 3.81137 47.2375 3.41752C47.2396 3.41335 47.2417 3.40918 47.2417 3.40502C47.3896 2.79445 47.3937 2.33183 47.3542 2.00883Z" fill="#FDD200"/>
</svg>
