<svg width="540" height="63" viewBox="0 0 540 63" fill="none" xmlns="http://www.w3.org/2000/svg">
<path d="M192.447 2.54126C193.683 2.54126 194.346 3.12002 194.346 4.35544V12.1853C194.346 13.4208 193.689 13.9995 192.447 13.9995H156.661C148.169 13.9995 145.692 16.5538 145.692 25.2074V26.8546H192.029C193.265 26.8546 193.845 27.4333 193.845 28.6688V35.1798C193.845 36.4152 193.265 36.994 192.029 36.994H145.692V58.4191C145.692 59.6545 145.112 60.2333 143.876 60.2333H134.973C133.737 60.2333 133.074 59.6545 133.074 58.4191V24.2947C133.074 8.47351 139.505 2.54126 156.16 2.54126H192.447Z" fill="#265BFF"/>
<path d="M230.567 26.8378C241.686 26.8378 245.266 30.4161 245.266 39.3701V55.2915C245.266 59.3038 244.281 60.2276 240.695 60.2276H212.292C205.003 60.2276 202.782 57.5731 202.782 51.4628V48.9975C202.782 43.811 205.003 40.9116 212.292 40.9116H236.435V39.7374C236.435 35.7863 235.077 34.2448 229.703 34.2448H203.884C203.144 34.2448 202.771 33.9387 202.771 33.1318V27.9453C202.771 27.2051 203.144 26.8323 203.884 26.8323H230.567V26.8378ZM236.435 51.3404V46.4098H214.825C212.292 46.4098 211.368 47.4616 211.368 49.4316V50.2274C211.368 52.4478 212.292 53.4384 214.825 53.4384H234.642C235.94 53.4384 236.435 52.8819 236.435 51.3404Z" fill="#265BFF"/>
<path d="M286.192 26.8376C286.932 26.8376 287.305 27.2049 287.305 27.9506V33.1372C287.305 33.9385 286.938 34.2502 286.192 34.2502H269.76C264.448 34.2502 263.028 35.8529 263.028 41.0394V58.8696C263.028 59.7934 262.594 60.2274 261.67 60.2274H255.617C254.693 60.2274 254.197 59.7934 254.197 58.8696V39.3699C254.197 30.4159 257.778 26.8376 268.897 26.8376H286.192Z" fill="#265BFF"/>
<path d="M342.502 26.8378C353.621 26.8378 357.14 30.4161 357.14 39.3701V58.8698C357.14 59.7936 356.706 60.2276 355.782 60.2276H349.729C348.805 60.2276 348.371 59.7936 348.371 58.8698V41.4626C348.371 36.276 347.385 34.6733 342.012 34.6733H331.143V58.8698C331.143 59.7936 330.647 60.2276 329.723 60.2276H323.671C322.746 60.2276 322.312 59.7936 322.312 58.8698V34.6733H311.81C306.498 34.6733 305.079 36.276 305.079 41.4626V58.8642C305.079 59.788 304.644 60.2221 303.72 60.2221H297.667C296.743 60.2221 296.248 59.788 296.248 58.8642V39.3646C296.248 30.4106 299.828 26.8323 310.947 26.8323H342.502V26.8378Z" fill="#265BFF"/>
<path d="M443.441 58.3132L416.151 8.785C413.429 3.84331 410.873 2.52441 406.669 2.52441H401.802C398.339 2.52441 395.867 3.84331 393.144 8.785L366.1 58.3132C365.521 59.3817 365.771 60.2108 367.174 60.2108H377.893C378.884 60.2108 379.38 59.966 379.792 59.1368L385.482 48.5077L403.623 14.8007C403.868 14.3889 404.119 14.222 404.531 14.222H405.026C405.438 14.222 405.689 14.3889 405.934 14.8007L430.094 59.1368C430.506 59.9604 430.918 60.2108 431.993 60.2108H442.466C443.769 60.2053 444.014 59.3817 443.441 58.3132Z" fill="#265BFF"/>
<path d="M462.294 24.478C463.53 24.478 464.11 25.1347 464.11 26.3757L464.098 58.4076C464.098 59.643 463.525 60.2218 462.283 60.2218H454.204C452.968 60.2218 452.389 59.643 452.389 58.4076L452.4 26.3757C452.4 25.1403 452.979 24.478 454.215 24.478H462.294Z" fill="#265BFF"/>
<path d="M462.334 2.54102H454.254C453.018 2.54102 452.355 3.11977 452.355 4.35519V12.1851C452.355 13.3649 452.974 13.9993 454.098 14.0549C454.154 14.0605 454.193 14.0772 454.254 14.0772H457.422H458.57C459.204 14.6782 459.605 15.5185 459.605 16.459C459.605 19.414 457.177 19.0968 457.177 19.6143C457.177 20.0985 460.825 20.2933 462.723 17.6276C463.954 15.9025 464.149 14.4222 464.149 12.2519C464.149 12.2296 464.149 12.2129 464.149 12.1907V12.1851V9.91459V9.692V4.36076C464.149 3.11977 463.57 2.54102 462.334 2.54102Z" fill="#265BFF"/>
<path d="M514.256 2.54663C532.207 2.54663 539.574 9.74213 539.574 25.8638V36.8992C539.574 53.0209 532.213 60.2164 514.256 60.2164H475.535C473.881 60.2164 473.052 59.3872 473.052 57.7344V5.0286C473.052 3.37581 473.881 2.54663 475.535 2.54663H514.256ZM485.714 47.6507C485.714 48.3964 486.042 48.7247 486.788 48.7247H513.927C523.688 48.7247 526.918 45.5805 526.918 35.8251V26.9379C526.918 17.1825 523.688 14.0383 513.927 14.0383H486.788C486.042 14.0383 485.714 14.3666 485.714 15.1958V47.6507Z" fill="#265BFF"/>
<path d="M23.7445 62.4536V46.9162C23.7445 46.9162 24.4406 34.2893 39.9867 34.2893C59.5976 34.2893 67.2315 51.2235 74.9489 54.7128C77.9724 56.2431 81.3021 57.0834 84.6875 57.178C92.1766 57.178 109.677 50.2441 109.677 15.9695C109.677 15.9695 100.1 27.2107 88.5796 27.2107C77.0592 27.2107 73.7239 20.8277 73.7239 20.8277C73.7239 20.8277 83.8579 20.1376 83.8579 0.292969C83.8579 0.292969 77.3321 8.20078 71.6414 8.75728C65.9453 9.31378 48.8734 7.09336 35.8273 19.1582C34.9866 16.8432 34.8418 14.3334 35.4097 11.9404C35.4097 11.9404 19.7244 23.1817 19.7244 47.4616C12.6529 46.8161 5.64261 49.1923 0.425293 53.9949C0.425293 53.9949 14.0338 54.6849 23.7445 62.4536Z" fill="#265BFF"/>
</svg>
